# xmcd
#
# Track frame offsets: 
#        150
#        20246
#        35352
#        53020
#        77501
#        92420
#        121003
#        138750
#        149293
#        166907
#        188179
#
# Disc length: 2738 seconds
#
# Revision: 0
# Processed by: cddbd v1.5.2PL0 Copyright (c) Steve Scherf et al.
# Submitted via: ExactAudioCopy v0.99pb4
#
DISCID=820ab00b
DTITLE=Cornbread Red - Pickin' On Relient K
DYEAR=2007
DGENRE=Tribute
TTITLE0=Be My Escape
TTITLE1=Sadie Hawkins Dance
TTITLE2=Who I am Hates Who I've Been
TTITLE3=Which To Burry, Us Or The Hatchet
TTITLE4=The Truth
TTITLE5=When I Go Down
TTITLE6=For The Moments I Feel Faint
TTITLE7=The Thief
TTITLE8=Falling Out
TTITLE9=Over Thinking
TTITLE10=In Like A Lion (Always Winter)
EXTD=
EXTT0=
EXTT1=
EXTT2=
EXTT3=
EXTT4=
EXTT5=
EXTT6=
EXTT7=
EXTT8=
EXTT9=
EXTT10=
PLAYORDER=
